<?xml version="1.0" encoding="UTF-8" standalone="no"?>
<!-- Created with Inkscape (http://www.inkscape.org/) -->

<svg
   xmlns:dc="http://purl.org/dc/elements/1.1/"
   xmlns:cc="http://creativecommons.org/ns#"
   xmlns:rdf="http://www.w3.org/1999/02/22-rdf-syntax-ns#"
   xmlns:svg="http://www.w3.org/2000/svg"
   xmlns="http://www.w3.org/2000/svg"
   xmlns:sodipodi="http://sodipodi.sourceforge.net/DTD/sodipodi-0.dtd"
   xmlns:inkscape="http://www.inkscape.org/namespaces/inkscape"
   width="1024"
   height="1024"
   id="svg2"
   version="1.1"
   inkscape:version="0.48.2 r9819"
   sodipodi:docname="logo.svg"
   enable-background="new">
  <defs
     id="defs4">
    <clipPath
       clipPathUnits="userSpaceOnUse"
       id="clipPath3841">
      <path
         sodipodi:nodetypes="zszsz"
         inkscape:connector-curvature="0"
         id="path3843"
         d="M 111.1224,719.01341 C 54.568803,630.62985 137.10704,308.56758 391.03881,166.41952 614.16266,41.517371 819.97967,78.618187 908.32048,218.65987 996.66133,358.70157 985.34184,613.59202 707.92613,726.61363 430.51042,839.63527 167.67599,807.39696 111.1224,719.01341 z"
         style="color:#000000;fill:#0000ff;fill-opacity:1;fill-rule:nonzero;stroke:none;stroke-width:4;marker:none;visibility:visible;display:inline;overflow:visible;enable-background:accumulate" />
    </clipPath>
    <clipPath
       clipPathUnits="userSpaceOnUse"
       id="clipPath3859">
      <path
         sodipodi:nodetypes="zszsz"
         inkscape:connector-curvature="0"
         id="path3861"
         d="M 111.1224,719.01341 C 54.568803,630.62985 137.10704,308.56758 391.03881,166.41952 614.16266,41.517371 819.97967,78.618187 908.32048,218.65987 996.66133,358.70157 985.34184,613.59202 707.92613,726.61363 430.51042,839.63527 167.67599,807.39696 111.1224,719.01341 z"
         style="color:#000000;fill:#0000ff;fill-opacity:1;fill-rule:nonzero;stroke:none;stroke-width:4;marker:none;visibility:visible;display:inline;overflow:visible;enable-background:accumulate" />
    </clipPath>
    <clipPath
       clipPathUnits="userSpaceOnUse"
       id="clipPath3897">
      <path
         sodipodi:nodetypes="zszsz"
         inkscape:connector-curvature="0"
         id="path3899"
         d="M 111.1224,719.01341 C 54.568803,630.62985 137.10704,308.56758 391.03881,166.41952 614.16266,41.517371 819.97967,78.618187 908.32048,218.65987 996.66133,358.70157 985.34184,613.59202 707.92613,726.61363 430.51042,839.63527 167.67599,807.39696 111.1224,719.01341 z"
         style="color:#000000;fill:#0000ff;fill-opacity:1;fill-rule:nonzero;stroke:none;stroke-width:4;marker:none;visibility:visible;display:inline;overflow:visible;enable-background:accumulate" />
    </clipPath>
    <clipPath
       clipPathUnits="userSpaceOnUse"
       id="clipPath3921">
      <path
         sodipodi:nodetypes="czzzc"
         inkscape:connector-curvature="0"
         id="path3923"
         d="m 102.85714,686.85714 c 0,0 -204.60302,7.01271 -194.285711,-24.28572 10.317312,-31.29843 2.414767,-20.55567 19.999999,-51.42856 C -53.843339,580.26997 180.71429,487.57142 191.42858,500.42857 202.14287,513.28572 140,568.28571 102.85714,686.85714 z"
         style="color:#000000;fill:#0000ff;fill-opacity:1;fill-rule:nonzero;stroke:none;stroke-width:4;marker:none;visibility:visible;display:inline;overflow:visible;enable-background:accumulate" />
    </clipPath>
    <clipPath
       clipPathUnits="userSpaceOnUse"
       id="clipPath3941">
      <path
         sodipodi:nodetypes="zssssz"
         inkscape:connector-curvature="0"
         id="path3943"
         d="m 193.57143,771.5 c -8.39285,0.35715 39.2857,142.49999 56.42856,143.92859 17.14286,1.4286 22.08836,-3.07708 34.28571,-7.14286 17.14286,-5.71428 94.64287,-131.25001 91.42859,-155.7143 -1.0632,-8.09217 -10.6059,-5.8082 -16.47321,-4.15179 C 284.26847,769.58522 201.96429,771.14285 193.57143,771.5 z"
         style="color:#000000;fill:#ff6600;fill-opacity:1;fill-rule:nonzero;stroke:none;stroke-width:4;marker:none;visibility:visible;display:inline;overflow:visible;enable-background:accumulate" />
    </clipPath>
    <clipPath
       clipPathUnits="userSpaceOnUse"
       id="clipPath3997">
      <path
         style="color:#000000;fill:#ff6600;stroke:none;stroke-width:4;marker:none;visibility:visible;display:inline;overflow:visible;enable-background:accumulate"
         d="m 456.58895,692.66997 c 0,0 83.84267,-41.41626 160.61426,-101.01526 35.81412,21.79405 66.42485,33.18131 96.97464,44.44671 0,0 -17.83418,113.86483 -27.27412,124.24877 -11.14466,12.25913 -154.56729,43.96748 -164.65486,43.43656 -9.13467,-0.48077 -56.06555,-9.7159 -63.63961,-20.20306 -6.17476,-8.54967 -2.02031,-90.91372 -2.02031,-90.91372 z"
         id="path3999"
         inkscape:connector-curvature="0"
         sodipodi:nodetypes="cccsssc" />
    </clipPath>
    <clipPath
       clipPathUnits="userSpaceOnUse"
       id="clipPath4002">
      <path
         sodipodi:nodetypes="cccsssc"
         inkscape:connector-curvature="0"
         id="path4004"
         d="m 456.58895,692.66997 c 0,0 83.84267,-41.41626 160.61426,-101.01526 35.81412,21.79405 66.42485,33.18131 96.97464,44.44671 0,0 -17.83418,113.86483 -27.27412,124.24877 -11.14466,12.25913 -154.56729,43.96748 -164.65486,43.43656 -9.13467,-0.48077 -56.06555,-9.7159 -63.63961,-20.20306 -6.17476,-8.54967 -2.02031,-90.91372 -2.02031,-90.91372 z"
         style="color:#000000;fill:#ff6600;stroke:none;stroke-width:4;marker:none;visibility:visible;display:inline;overflow:visible;enable-background:accumulate" />
    </clipPath>
  </defs>
  <sodipodi:namedview
     id="base"
     pagecolor="#ffffff"
     bordercolor="#666666"
     borderopacity="1.0"
     inkscape:pageopacity="0.0"
     inkscape:pageshadow="2"
     inkscape:zoom="0.54928758"
     inkscape:cx="393.33743"
     inkscape:cy="111.89727"
     inkscape:document-units="px"
     inkscape:current-layer="layer4"
     showgrid="true"
     inkscape:window-width="1920"
     inkscape:window-height="1179"
     inkscape:window-x="0"
     inkscape:window-y="21"
     inkscape:window-maximized="0" />
  <metadata
     id="metadata7">
    <rdf:RDF>
      <cc:Work
         rdf:about="">
        <dc:format>image/svg+xml</dc:format>
        <dc:type
           rdf:resource="http://purl.org/dc/dcmitype/StillImage" />
        <dc:title />
      </cc:Work>
    </rdf:RDF>
  </metadata>
  <g
     inkscape:label="base"
     inkscape:groupmode="layer"
     id="layer1"
     transform="translate(0,-28.362183)">
    <path
       sodipodi:nodetypes="csscc"
       inkscape:connector-curvature="0"
       id="path3821"
       d="m 122.31287,605.49175 c 0,0 -30.432417,-128.97541 -24.040518,-148.89029 5.257108,-16.3793 11.862668,-28.04184 19.228448,-38.57992 9.3875,-13.4305 130.12733,0.16397 130.12733,0.16397 -57.26691,12.29285 -71.14987,151.26787 -125.31526,187.30624 z"
       style="color:#000000;fill:#ff6600;fill-opacity:1;fill-rule:nonzero;stroke:none;stroke-width:4;marker:none;visibility:visible;display:inline;overflow:visible;enable-background:accumulate" />
    <path
       style="color:#000000;fill:#0000ff;fill-opacity:1;fill-rule:nonzero;stroke:none;stroke-width:4;marker:none;visibility:visible;display:inline;overflow:visible;enable-background:accumulate"
       d="M 111.1224,747.37559 C 54.568803,658.99203 137.10704,336.92976 391.03881,194.7817 614.16266,69.879554 819.97967,106.98037 908.32048,247.02205 996.66133,387.06375 985.34184,641.9542 707.92613,754.97581 430.51042,867.99745 167.67599,835.75914 111.1224,747.37559 z"
       id="path2989"
       inkscape:connector-curvature="0"
       sodipodi:nodetypes="zszsz" />
    <path
       style="color:#000000;fill:#ff6600;stroke:none;stroke-width:4;marker:none;visibility:visible;display:inline;overflow:visible;enable-background:accumulate"
       d="m 855.71429,239.71429 c -110,7.14286 -209.0988,42.71513 -314.28572,108.57142 C 403.8105,434.44678 284.28571,519.71428 100,724 88.571429,649.71429 125.63585,344.12453 415.71428,182.57143 631.18388,62.570155 812.08544,175.21856 855.71429,239.71429 z"
       id="path3782"
       inkscape:connector-curvature="0"
       transform="translate(0,28.362183)"
       sodipodi:nodetypes="cscsc"
       clip-path="url(#clipPath3859)" />
    <path
       style="color:#000000;fill:#ff6600;fill-opacity:1;fill-rule:nonzero;stroke:none;stroke-width:4;marker:none;visibility:visible;display:inline;overflow:visible;enable-background:accumulate"
       d="m 855.85664,239.61153 c 0,0 54.14336,-11.32581 88.42908,-15.61153 17.14285,-2.14286 52.14285,55.35714 45.71427,139.10714 -6.42857,83.75001 -31.42858,162.32144 -31.42858,162.32144 0,0 24.42809,-178.67419 -102.71477,-285.81705 z"
       id="path3786"
       inkscape:connector-curvature="0"
       transform="translate(0,28.362183)"
       sodipodi:nodetypes="csscc"
       clip-path="url(#clipPath3841)" />
  </g>
  <g
     inkscape:groupmode="layer"
     id="layer3"
     inkscape:label="shadows"
     style="opacity:0.50000000000000000;display:inline;">
    <path
       style="color:#000000;fill:#000020;fill-opacity:1;fill-rule:nonzero;stroke:none;stroke-width:4;marker:none;visibility:visible;display:inline;overflow:visible;enable-background:accumulate"
       d="M 108.08632,739.13698 C 179.98187,775.01649 428.31755,677.97488 535.38086,605.79684 634.45158,539.00711 948.53324,296.69017 882.87331,168.4008 826.83658,58.91365 1020.254,365.38054 1020.254,365.38054 931.14536,717.60981 670.89481,790.85432 387.89858,827.02026 L 160.61425,804.7969 z"
       id="path3888"
       inkscape:connector-curvature="0"
       sodipodi:nodetypes="csscccc"
       clip-path="url(#clipPath3897)" />
  </g>
  <g
     inkscape:groupmode="layer"
     id="layer4"
     inkscape:label="details"
     style="display:inline">
    <path
       style="color:#000000;fill:#ff6600;stroke:none;stroke-width:4;marker:none;visibility:visible;display:inline;overflow:visible;enable-background:accumulate"
       d="m 456.58895,692.66997 c 0,0 83.84267,-41.41626 160.61426,-101.01526 35.81412,21.79405 66.42485,33.18131 96.97464,44.44671 0,0 -17.83418,113.86483 -27.27412,124.24877 -11.14466,12.25913 -154.56729,43.96748 -164.65486,43.43656 -9.13467,-0.48077 -56.06555,-9.7159 -63.63961,-20.20306 -6.17476,-8.54967 -2.02031,-90.91372 -2.02031,-90.91372 z"
       id="path3879"
       inkscape:connector-curvature="0"
       sodipodi:nodetypes="cccsssc" />
    <path
       style="color:#000000;fill:#0000ff;fill-opacity:1;fill-rule:nonzero;stroke:none;stroke-width:4;marker:none;visibility:visible;display:inline;overflow:visible;enable-background:accumulate"
       d="m 102.85714,686.85714 c 0,0 -204.60302,7.01271 -194.285711,-24.28572 10.317312,-31.29843 2.414767,-20.55567 19.999999,-51.42856 C -53.843339,580.26997 180.71429,487.57142 191.42858,500.42857 202.14287,513.28572 140,568.28571 102.85714,686.85714 z"
       id="path3788"
       inkscape:connector-curvature="0"
       sodipodi:nodetypes="czzzc" />
    <path
       transform="translate(0,-28.362183)"
       style="color:#000000;fill:#ff6600;fill-opacity:1;fill-rule:nonzero;stroke:none;stroke-width:4;marker:none;visibility:visible;display:inline;overflow:visible;enable-background:accumulate"
       d="m 193.57143,799.86218 c -8.39285,0.35715 39.2857,142.49999 56.42856,143.92859 17.14286,1.4286 22.08836,-3.07708 34.28571,-7.14286 17.14286,-5.71428 94.64287,-131.25001 91.42859,-155.7143 -1.0632,-8.09217 -10.6059,-5.8082 -16.47321,-4.15179 -74.97261,21.16558 -157.27679,22.72321 -165.66965,23.08036 z"
       id="path3790"
       inkscape:connector-curvature="0"
       sodipodi:nodetypes="zssssz" />
    <path
       style="font-size:144px;font-style:normal;font-variant:normal;font-weight:bold;font-stretch:normal;text-align:start;line-height:125%;letter-spacing:10.86999989000000078px;word-spacing:0px;writing-mode:lr-tb;text-anchor:start;fill:#000040;fill-opacity:1;stroke:#000040;stroke-width:10.32267569999999957;stroke-linecap:round;stroke-linejoin:round;stroke-miterlimit:4;stroke-dasharray:none;filter:url(#filter4018);font-family:Arial;-inkscape-font-specification:Arial Bold;stroke-opacity:1"
       d="m 571.93073,145.82401 c -20.39675,-12.83813 -48.12894,-3.45109 -74.1251,11.04911 1.29361,24.0037 38.09497,79.88574 74.20843,98.07645 5.09735,-3.97453 12.97809,-10.81928 18.97166,-14.99572 -13.56686,-5.92574 -27.10138,-14.506 -38.90125,-27.99396 14.16228,-9.9721 24.34304,-17.58478 29.52579,-25.90031 7.56486,-12.13754 5.71214,-30.54773 -9.67953,-40.23557 z m -33.39698,51.78264 c -10.28742,-14.04223 -14.90522,-20.12925 -18.81278,-35.49068 21.86615,-13.00186 35.64665,-9.60901 41.48799,-4.59114 18.09478,15.54389 -6.12675,32.56954 -22.67521,40.08182 z"
       id="path4080"
       inkscape:connector-curvature="0"
       transform="matrix(0.96357932,0.28695231,-0.43232363,1.2737147,123.09964,-185.05207)"
       sodipodi:nodetypes="sccccssccsc" />
    <path
       style="font-size:144px;font-style:normal;font-variant:normal;font-weight:bold;font-stretch:normal;text-align:start;line-height:125%;letter-spacing:10.86999989000000078px;word-spacing:0px;writing-mode:lr-tb;text-anchor:start;fill:#000040;fill-opacity:1;stroke:#000040;stroke-width:9.63609409000000028;stroke-linecap:round;stroke-linejoin:round;stroke-miterlimit:4;stroke-dasharray:none;filter:url(#filter4018);font-family:Arial;-inkscape-font-specification:Arial Bold;stroke-opacity:1"
       d="m 475.25954,342.08246 c -25.43848,-14.07733 -54.82612,-61.20857 -71.07715,-97.64793 7.26004,-7.35825 11.6641,-10.46513 20.585,-16.1561 10.78262,17.31912 29.46203,27.99239 46.18174,43.87233 -13.36667,-22.36226 -17.76433,-38.28205 -20.49306,-59.48028 8.0322,-6.61618 12.60707,-9.58461 22.68382,-15.59839 9.42943,31.86824 46.26653,65.49835 80.68993,86.60171 -5.82251,3.84727 -5.57144,5.44837 -13.84646,10.28824 -23.48793,-11.19061 -46.05295,-31.83935 -63.98621,-56.9597 7.57482,27.49849 19.07421,52.08224 43.68728,70.64213 -6.59769,2.94043 -7.98249,5.60217 -12.37684,10.13452 -22.94646,-12.52759 -47.60539,-32.36518 -67.0956,-50.1836 12.88991,22.22474 26.47082,43.07073 50.20523,61.90009 -3.58078,4.31095 -11.00059,7.66815 -15.15768,12.58698 z"
       id="path4076"
       inkscape:connector-curvature="0"
       transform="matrix(0.99844254,0.27558822,-0.42438981,1.4360965,107.23299,-244.6622)"
       sodipodi:nodetypes="cccccccccccccc" />
    <path
       style="font-size:144px;font-style:normal;font-variant:normal;font-weight:bold;font-stretch:normal;text-align:start;line-height:125%;letter-spacing:10.86999989000000078px;word-spacing:0px;writing-mode:lr-tb;text-anchor:start;fill:#000040;fill-opacity:1;stroke:#000040;stroke-width:8.99511146999999944;stroke-linecap:round;stroke-linejoin:round;stroke-miterlimit:4;stroke-dasharray:none;filter:url(#filter4018);font-family:Arial;-inkscape-font-specification:Arial Bold;stroke-opacity:1"
       d="m 428.4337,374.18111 c -27.84701,-20.39431 -58.95821,-47.11033 -69.35924,-85.31316 4.71836,-4.40705 11.3584,-10.30319 15.94385,-13.85501 7.94625,22.548 39.05598,69.71315 71.81427,85.09593 -5.3548,4.41079 -13.04409,9.66146 -18.39888,14.07224 z"
       id="path4074"
       inkscape:connector-curvature="0"
       transform="matrix(1.0111409,0.2118483,-0.34222256,1.6884011,86.065254,-308.4907)"
       sodipodi:nodetypes="ccccc" />
    <path
       style="font-size:144px;font-style:normal;font-variant:normal;font-weight:bold;font-stretch:normal;text-align:start;line-height:125%;letter-spacing:10.86999989px;word-spacing:0px;writing-mode:lr-tb;text-anchor:start;fill:#000040;fill-opacity:1;stroke:#000040;stroke-width:9.74350739;stroke-linecap:round;stroke-linejoin:round;stroke-miterlimit:4;stroke-opacity:1;stroke-dasharray:none;filter:url(#filter4018);font-family:Arial;-inkscape-font-specification:Arial Bold"
       d="m 358.07889,438.99556 c -25.50681,-22.21453 -57.48281,-54.51754 -71.46124,-89.00733 4.22741,-7.2653 5.71845,-7.02972 12.76775,-13.79484 12.59751,27.97254 40.47176,64.25221 61.08266,78.09542 13.31463,-10.96736 22.38193,-18.57625 35.69656,-29.54361 6.12462,5.6488 17.2594,10.37848 16.9353,10.48959 -0.8068,0.10123 -40.55946,30.05228 -55.02103,43.76077 z"
       id="path4072"
       inkscape:connector-curvature="0"
       transform="matrix(0.92200789,0.1980088,-0.31205531,1.5781022,113.47539,-279.70512)"
       sodipodi:nodetypes="ccccccc" />
    <path
       style="font-size:144px;font-style:normal;font-variant:normal;font-weight:bold;font-stretch:normal;text-align:start;line-height:125%;letter-spacing:10.86999989px;word-spacing:0px;writing-mode:lr-tb;text-anchor:start;fill:#000040;fill-opacity:1;stroke:#000040;stroke-width:12;stroke-linecap:round;stroke-linejoin:round;stroke-miterlimit:4;stroke-opacity:1;stroke-dasharray:none;filter:url(#filter4018);font-family:Arial;-inkscape-font-specification:Arial Bold"
       d="m 228.86465,383.9034 c -19.68888,5.93553 -28.717,21.22304 -37.51433,41.81431 16.28697,28.08531 54.09031,59.50201 85.87903,79.72722 16.26087,-13.88876 20.13566,-18.21639 35.04883,-33.57048 17.93414,-19.94627 -12.97012,-61.16975 -38.03222,-47.61241 12.2835,-17.45884 -23.59944,-46.92513 -45.38131,-40.35864 z m 13.65479,15.30054 c 23.19297,18.24585 -4.76959,40.77082 -12.96954,50.65046 -6.82923,-6.66459 -16.5943,-17.64136 -21.66514,-24.03178 6.13814,-9.71739 21.77895,-36.73225 34.63468,-26.61868 z m 42.71396,36.98771 c 25.23948,17.68984 4.65793,34.5521 -9.35793,50.30734 -8.96141,-6.16673 -23.2876,-16.01642 -33.46574,-26.1228 17.11413,-21.97276 30.96752,-32.49427 42.82367,-24.18454 z"
       id="path4070"
       inkscape:connector-curvature="0"
       transform="matrix(0.74535935,0.16148105,-0.25226828,1.2869812,155.29511,-140.40356)"
       sodipodi:nodetypes="sccccssccssccs" />
    <path
       sodipodi:nodetypes="sccccssccsc"
       inkscape:connector-curvature="0"
       id="path3838"
       d="m 606.1571,160.80296 c -14.10366,-22.20501 -43.29109,-17.06858 -74.60924,-6.05912 -9.13087,30.94507 0.57807,111.54525 27.51198,145.07786 6.62998,-3.59972 17.18284,-10.05658 24.7637,-13.65631 -10.51091,-11.44074 -19.84304,-26.25331 -25.38199,-46.81912 17.95765,-8.63771 31.05876,-15.4127 39.64776,-24.51711 12.53668,-13.28901 18.7106,-37.26998 8.06779,-54.0262 z m -54.5675,56.37297 c -3.84196,-20.8378 -5.66001,-29.91601 -2.78415,-50.60337 26.69079,-10.28612 39.78637,-1.29206 43.32723,6.73997 11.44665,25.96532 -20.27409,40.47752 -40.54308,43.8634 z"
       style="font-size:144px;font-style:normal;font-variant:normal;font-weight:bold;font-stretch:normal;text-align:start;line-height:125%;letter-spacing:10.86999989px;word-spacing:0px;writing-mode:lr-tb;text-anchor:start;fill:#000080;fill-opacity:1;stroke:#000080;stroke-width:0;stroke-linecap:round;stroke-linejoin:round;stroke-miterlimit:4;stroke-opacity:1;stroke-dasharray:none;filter:url(#filter4018);font-family:Arial;-inkscape-font-specification:Arial Bold" />
    <path
       sodipodi:nodetypes="cccccccccccccc"
       inkscape:connector-curvature="0"
       id="path3840"
       d="M 431.57602,373.57715 C 412.15144,346.3502 404.17698,271.93171 403.41576,215.12268 c 10.3715,-8.56638 16.08723,-11.81445 27.40942,-17.52874 3.41577,27.84349 16.17106,46.95376 26.12545,74.36665 -3.85554,-35.79806 -0.12475,-58.50696 6.14708,-89.70167 10.82753,-7.28789 16.65504,-10.29007 29.26829,-16.1494 -4.10982,48.36451 17.03224,105.44706 42.44597,145.24021 -7.44618,3.92043 -7.87499,6.28896 -18.19112,10.95898 -18.70216,-22.54379 -32.46893,-58.41603 -39.71343,-99.43347 -4.10706,41.57801 -3.05867,80.05175 13.63943,113.48861 -7.8353,2.4045 -10.34756,5.84538 -16.65855,11.14324 -17.59414,-24.3146 -33.79579,-59.59901 -45.69369,-90.55925 3.43788,35.46918 8.15081,69.14877 23.85727,102.73047 -5.40473,5.20412 -14.23774,7.98057 -20.47586,13.89884 z"
       style="font-size:144px;font-style:normal;font-variant:normal;font-weight:bold;font-stretch:normal;text-align:start;line-height:125%;letter-spacing:10.86999989px;word-spacing:0px;writing-mode:lr-tb;text-anchor:start;fill:#000080;fill-opacity:1;stroke:#000080;stroke-width:0;stroke-linecap:round;stroke-linejoin:round;stroke-miterlimit:4;stroke-opacity:1;stroke-dasharray:none;filter:url(#filter4018);font-family:Arial;-inkscape-font-specification:Arial Bold" />
    <path
       sodipodi:nodetypes="ccccc"
       inkscape:connector-curvature="0"
       id="path3842"
       d="m 386.21887,410.04005 c -21.17785,-40.33312 -43.03771,-89.98322 -40.48074,-156.68836 6.27912,-6.44129 15.01092,-14.98966 20.86297,-20.01514 0.31835,39.75347 15.17856,123.92959 43.03747,156.84168 -6.92393,6.31278 -16.49578,13.54906 -23.4197,19.86182 z"
       style="font-size:144px;font-style:normal;font-variant:normal;font-weight:bold;font-stretch:normal;text-align:start;line-height:125%;letter-spacing:10.86999989px;word-spacing:0px;writing-mode:lr-tb;text-anchor:start;fill:#000080;fill-opacity:1;stroke:#000080;stroke-width:0;stroke-linecap:round;stroke-linejoin:round;stroke-miterlimit:4;stroke-opacity:1;stroke-dasharray:none;filter:url(#filter4018);font-family:Arial;-inkscape-font-specification:Arial Bold" />
    <path
       sodipodi:nodetypes="ccccccc"
       inkscape:connector-curvature="0"
       id="path3844"
       d="m 301.63606,479.97751 c -16.58532,-40.10737 -35.39868,-94.11998 -37.52418,-151.31625 6.16488,-10.62832 7.23855,-9.50617 15.84915,-18.7864 2.88602,46.63795 17.81444,107.25178 32.498,133.17892 15.69862,-14.6712 26.66071,-25.33853 42.35932,-40.00973 3.88421,10.12711 11.53681,18.65797 11.20331,18.76914 -0.77546,0 -46.77412,39.39444 -64.3856,58.16432 z"
       style="font-size:144px;font-style:normal;font-variant:normal;font-weight:bold;font-stretch:normal;text-align:start;line-height:125%;letter-spacing:10.86999989px;word-spacing:0px;writing-mode:lr-tb;text-anchor:start;fill:#000080;fill-opacity:1;stroke:#000080;stroke-width:0;stroke-linecap:round;stroke-linejoin:round;stroke-miterlimit:4;stroke-opacity:1;stroke-dasharray:none;filter:url(#filter4018);font-family:Arial;-inkscape-font-specification:Arial Bold" />
    <path
       sodipodi:nodetypes="sccccssccssccs"
       inkscape:connector-curvature="0"
       id="path3848"
       d="m 224.93866,388.5821 c -16.17264,4.45954 -26.75839,23.3591 -38.51008,48.43908 5.05461,38.7753 25.30624,85.31253 43.89808,116.47527 15.62389,-15.24875 19.60372,-20.19262 34.59275,-37.54486 18.39919,-22.77445 5.76378,-80.81874 -16.33657,-67.41776 13.55993,-20.48564 -5.75235,-64.88532 -23.64418,-59.95173 z m 7.91086,20.75865 c 15.75415,27.73036 -9.0803,38.28815 -22.21691,64.9124 -4.01754,-10.0584 -9.01961,-25.0607 -10.08586,-34.65452 7.02651,-11.5149 24.07856,-44.73409 32.30277,-30.25788 z m 20.91344,56.32053 c 14.3499,26.84219 -4.56186,44.08223 -18.98326,62.09563 -5.1238,-9.38356 -13.54476,-23.69063 -17.67135,-36.74794 18.29921,-25.51493 29.9138,-37.9567 36.65461,-25.34769 z"
       style="font-size:144px;font-style:normal;font-variant:normal;font-weight:bold;font-stretch:normal;text-align:start;line-height:125%;letter-spacing:10.86999989px;word-spacing:0px;writing-mode:lr-tb;text-anchor:start;fill:#000080;fill-opacity:1;stroke:#000080;stroke-width:0.2;stroke-linecap:round;stroke-linejoin:round;stroke-miterlimit:4;stroke-opacity:1;stroke-dasharray:none;filter:url(#filter4018);font-family:Arial;-inkscape-font-specification:Arial Bold" />
  </g>
  <g
     inkscape:groupmode="layer"
     id="layer5"
     inkscape:label="details shadows"
     style="opacity:0.50000000000000000;display:inline;">
    <path
       style="color:#000000;fill:#000020;fill-opacity:1;fill-rule:nonzero;stroke:none;stroke-width:4;marker:none;visibility:visible;display:inline;overflow:visible;enable-background:accumulate"
       d="m 207.5,503.28571 c -91.07143,16.42857 -260.714286,90 -271.428572,113.57143 -10.714286,23.57143 -28.800019,49.58038 -20.714285,58.21429 21.071429,22.5 191.785717,21.42857 191.785717,21.42857 z"
       id="path3915"
       inkscape:connector-curvature="0"
       sodipodi:nodetypes="csscc"
       clip-path="url(#clipPath3921)" />
    <path
       style="color:#000000;fill:#000020;fill-opacity:1;fill-rule:nonzero;stroke:none;stroke-width:4;marker:none;visibility:visible;display:inline;overflow:visible;enable-background:accumulate"
       d="m 384.625,742.9375 -198.25,19.9375 3.31696,20.49107 c 27.87087,2.17027 102.24532,3.62274 161.12955,-6.43287 10.98961,-1.87669 17.07109,2.62305 15.28529,8.66991 -1.40402,14.34745 15.88355,-17.85641 18.5182,-42.66561 z"
       id="path3928"
       clip-path="url(#clipPath3941)"
       inkscape:connector-curvature="0"
       sodipodi:nodetypes="cccscc" />
    <path
       style="color:#000000;fill:#000020;fill-opacity:1;fill-rule:nonzero;stroke:none;stroke-width:4;marker:none;visibility:visible;display:inline;overflow:visible;enable-background:accumulate"
       d="m 449.28571,726.14286 c 73.19794,-29.92695 86.44801,-37.38555 148.39286,-76.60715 2.86656,-1.81502 8.90463,-2.31078 13.30358,-0.3125 22.50655,10.2239 64.09444,42.25625 81.0255,58.91602 5.27132,5.18685 5.5252,13.05703 4.03097,21.2665 4.10714,-10.89285 31.10424,-97.54859 31.10424,-97.54859 l -111.42857,-55 L 446.42857,684 c 0,0 2.85714,26.07143 2.85714,42.14286 z"
       id="path3945"
       inkscape:connector-curvature="0"
       sodipodi:nodetypes="csssccccc"
       mask="none"
       clip-path="url(#clipPath3997)" />
    <path
       style="color:#000000;fill:#000020;fill-opacity:1;fill-rule:nonzero;stroke:none;stroke-width:4;marker:none;visibility:visible;display:inline;overflow:visible;enable-background:accumulate"
       d="m 456.42857,775.42857 c 0,4.64286 3.05031,6.9267 6.42857,5.71429 51.25,-18.39286 85.50533,-34.87032 122.404,-56.48242 5.5916,-3.27508 11.67741,-1.64567 15.25626,-0.19126 3.71936,1.5115 79.4826,30.60225 81.62546,32.38796 2.14286,1.78572 1.78571,6.78572 -2.85714,8.92857 -4.64286,2.14286 -137.5,42.85715 -155.35715,41.78572 C 506.07143,806.5 452.85714,784.71429 452.85714,784.71429 l -1.07142,-8.92858 z"
       id="path3959"
       inkscape:connector-curvature="0"
       clip-path="url(#clipPath4002)"
       sodipodi:nodetypes="cssssssccc" />
  </g>
  <g
     inkscape:groupmode="layer"
     id="layer2"
     inkscape:label="guides"
     style="display:none"
     sodipodi:insensitive="true">
    <path
       style="color:#000000;fill:none;stroke:#000000;stroke-width:4.52680063;stroke-linecap:round;stroke-linejoin:miter;stroke-miterlimit:4;stroke-opacity:1;stroke-dasharray:none;stroke-dashoffset:0;marker:none;visibility:visible;display:inline;overflow:visible;enable-background:accumulate"
       d="M 728.05713,79.977687 C 805.65942,104.22841 840.37507,163.03781 858.20264,244.88258 876.03021,326.72735 822.95478,497.89249 668.54498,618.53176 539.69342,719.20256 378.09422,773.17194 173.32933,772.26622"
       id="path3778"
       inkscape:connector-curvature="0"
       sodipodi:nodetypes="cssc" />
    <path
       style="color:#000000;fill:none;stroke:#000000;stroke-width:4.52680063;stroke-linecap:round;stroke-linejoin:miter;stroke-miterlimit:4;stroke-opacity:1;stroke-dasharray:none;stroke-dashoffset:0;marker:none;visibility:visible;display:inline;overflow:visible;enable-background:accumulate"
       d="m 972.18107,375.83645 c 6.46687,-4.85014 18.30172,-68.87728 -112.3617,-134.1873 C 744.93363,184.22535 614.20604,189.80141 503.33381,240.03244 241.48882,358.66218 125.02263,602.17648 99.155186,710.49634"
       id="path3767"
       inkscape:connector-curvature="0" />
    <path
       sodipodi:type="arc"
       style="color:#000000;fill:none;stroke:#4d4d4d;stroke-width:4;stroke-linecap:round;stroke-linejoin:miter;stroke-miterlimit:4;stroke-opacity:1;stroke-dasharray:none;stroke-dashoffset:0;marker:none;visibility:visible;display:inline;overflow:visible;enable-background:accumulate"
       id="path3794"
       sodipodi:cx="773.57141"
       sodipodi:cy="430.42856"
       sodipodi:rx="236.42857"
       sodipodi:ry="312.14285"
       d="m 1010,430.42856 a 236.42857,312.14285 0 1 1 -472.85716,0 236.42857,312.14285 0 1 1 472.85716,0 z"
       transform="matrix(0.76944263,-0.51138992,0.50744508,0.78085076,-112.92341,427.35328)" />
    <path
       transform="matrix(0.76944263,-0.51138992,0.50744508,0.78085076,-388.6377,571.63899)"
       d="m 1010,430.42856 a 236.42857,312.14285 0 1 1 -472.85716,0 236.42857,312.14285 0 1 1 472.85716,0 z"
       sodipodi:ry="312.14285"
       sodipodi:rx="236.42857"
       sodipodi:cy="430.42856"
       sodipodi:cx="773.57141"
       id="path3796"
       style="color:#000000;fill:none;stroke:#4d4d4d;stroke-width:4;stroke-linecap:round;stroke-linejoin:miter;stroke-miterlimit:4;stroke-opacity:1;stroke-dasharray:none;stroke-dashoffset:0;marker:none;visibility:visible;display:inline;overflow:visible;enable-background:accumulate"
       sodipodi:type="arc" />
    <path
       transform="matrix(0.28028228,-0.18656421,0.18484532,0.28486836,-114.23823,690.99096)"
       d="m 1010,430.42856 a 236.42857,312.14285 0 1 1 -472.85716,0 236.42857,312.14285 0 1 1 472.85716,0 z"
       sodipodi:ry="312.14285"
       sodipodi:rx="236.42857"
       sodipodi:cy="430.42856"
       sodipodi:cx="773.57141"
       id="path3800"
       style="color:#000000;fill:none;stroke:#4d4d4d;stroke-width:10.97266674;stroke-linecap:round;stroke-linejoin:miter;stroke-miterlimit:4;stroke-opacity:1;stroke-dasharray:none;stroke-dashoffset:0;marker:none;visibility:visible;display:inline;overflow:visible;enable-background:accumulate"
       sodipodi:type="arc" />
    <path
       style="color:#000000;fill:none;stroke:#000000;stroke-width:4;stroke-linecap:round;stroke-linejoin:miter;stroke-miterlimit:4;stroke-opacity:1;stroke-dasharray:none;stroke-dashoffset:0;marker:none;visibility:visible;display:inline;overflow:visible;enable-background:accumulate"
       d="M 722.25908,638.12173 616.19306,592.66487 454.56865,694.69027"
       id="path3863"
       inkscape:connector-curvature="0"
       sodipodi:nodetypes="ccc" />
    <path
       transform="matrix(0.86288751,-0.56439992,0.56907169,0.86179271,-363.25844,513.32261)"
       d="m 1010,430.42856 a 236.42857,312.14285 0 1 1 -472.85716,0 236.42857,312.14285 0 1 1 472.85716,0 z"
       sodipodi:ry="312.14285"
       sodipodi:rx="236.42857"
       sodipodi:cy="430.42856"
       sodipodi:cx="773.57141"
       id="path3865"
       style="color:#000000;fill:none;stroke:#4d4d4d;stroke-width:3.59545302;stroke-linecap:round;stroke-linejoin:miter;stroke-miterlimit:4;stroke-opacity:1;stroke-dasharray:none;stroke-dashoffset:0;marker:none;visibility:visible;display:inline;overflow:visible;enable-background:accumulate"
       sodipodi:type="arc" />
    <path
       style="color:#000000;fill:none;stroke:#000000;stroke-width:4;stroke-linecap:round;stroke-linejoin:miter;stroke-miterlimit:4;stroke-opacity:1;stroke-dasharray:none;stroke-dashoffset:0;marker:none;visibility:visible;display:inline;overflow:visible;enable-background:accumulate"
       d="m 617.2032,593.67502 -37.37563,128.28937 111.11678,40.4061 31.31472,-126.26907"
       id="path3867"
       inkscape:connector-curvature="0"
       sodipodi:nodetypes="cccc" />
    <path
       style="color:#000000;fill:none;stroke:#000000;stroke-width:4;stroke-linecap:round;stroke-linejoin:miter;stroke-miterlimit:4;stroke-opacity:1;stroke-dasharray:none;stroke-dashoffset:0;marker:none;visibility:visible;display:inline;overflow:visible;enable-background:accumulate"
       d="m 455.57879,694.69027 3.03047,88.89342 63.63962,19.1929 13.13197,-69.70053"
       id="path3869"
       inkscape:connector-curvature="0"
       sodipodi:nodetypes="cccc" />
    <path
       style="color:#000000;fill:none;stroke:#000000;stroke-width:4;stroke-linecap:round;stroke-linejoin:miter;stroke-miterlimit:4;stroke-opacity:1;stroke-dasharray:none;stroke-dashoffset:0;marker:none;visibility:visible;display:inline;overflow:visible;enable-background:accumulate"
       d="M 581.84787,720.95424 458.60926,783.5837"
       id="path3875"
       inkscape:connector-curvature="0"
       sodipodi:nodetypes="cc" />
    <path
       style="color:#000000;fill:none;stroke:#000000;stroke-width:4;stroke-linecap:round;stroke-linejoin:miter;stroke-miterlimit:4;stroke-opacity:1;stroke-dasharray:none;stroke-dashoffset:0;marker:none;visibility:visible;display:inline;overflow:visible;enable-background:accumulate"
       d="M 688.92403,761.36033 523.25901,803.78674"
       id="path3877"
       inkscape:connector-curvature="0"
       sodipodi:nodetypes="cc" />
  </g>
</svg>
